<?xml version="1.0" encoding="UTF-8" ?>
<svg xmlns="http://www.w3.org/2000/svg" version="1.1" height="224" width="224"><polygon points="0,0 0,30 27,15" style="fill:#fbfbfb"></polygon><polygon points="27,-16 27,14 0,-1" style="fill:#f7f7f7"></polygon><polygon points="0,32 0,62 27,47" style="fill:#f4f4f4"></polygon><polygon points="27,16 27,46 0,31" style="fill:#f2f2f2"></polygon><polygon points="0,64 0,94 27,79" style="fill:#fbfbfb"></polygon><polygon points="27,48 27,78 0,63" style="fill:#f3f3f3"></polygon><polygon points="0,96 0,126 27,111" style="fill:#f0f0f0"></polygon><polygon points="27,80 27,110 0,95" style="fill:#f1f1f1"></polygon><polygon points="0,128 0,158 27,143" style="fill:#f3f3f3"></polygon><polygon points="27,112 27,142 0,127" style="fill:#f8f8f8"></polygon><polygon points="0,160 0,190 27,175" style="fill:#f6f6f6"></polygon><polygon points="27,144 27,174 0,159" style="fill:#f2f2f2"></polygon><polygon points="0,192 0,222 27,207" style="fill:#f8f8f8"></polygon><polygon points="27,176 27,206 0,191" style="fill:#f2f2f2"></polygon><polygon points="0,224 0,254 27,239" style="fill:#fbfbfb"></polygon><polygon points="27,208 27,238 0,223" style="fill:#f7f7f7"></polygon><polygon points="28,-16 28,14 55,-1" style="fill:#f7f7f7"></polygon><polygon points="55,0 55,30 28,15" style="fill:#fbfbfb"></polygon><polygon points="28,16 28,46 55,31" style="fill:#fbfbfb"></polygon><polygon points="55,32 55,62 28,47" style="fill:#f7f7f7"></polygon><polygon points="28,48 28,78 55,63" style="fill:#f0f0f0"></polygon><polygon points="55,64 55,94 28,79" style="fill:#f8f8f8"></polygon><polygon points="28,80 28,110 55,95" style="fill:#f5f5f5"></polygon><polygon points="55,96 55,126 28,111" style="fill:#f7f7f7"></polygon><polygon points="28,112 28,142 55,127" style="fill:#f8f8f8"></polygon><polygon points="55,128 55,158 28,143" style="fill:#f6f6f6"></polygon><polygon points="28,144 28,174 55,159" style="fill:#f4f4f4"></polygon><polygon points="55,160 55,190 28,175" style="fill:#f3f3f3"></polygon><polygon points="28,176 28,206 55,191" style="fill:#f5f5f5"></polygon><polygon points="55,192 55,222 28,207" style="fill:#f1f1f1"></polygon><polygon points="28,208 28,238 55,223" style="fill:#f7f7f7"></polygon><polygon points="55,224 55,254 28,239" style="fill:#fbfbfb"></polygon><polygon points="56,0 56,30 83,15" style="fill:#f6f6f6"></polygon><polygon points="83,-16 83,14 56,-1" style="fill:#fbfbfb"></polygon><polygon points="56,32 56,62 83,47" style="fill:#f8f8f8"></polygon><polygon points="83,16 83,46 56,31" style="fill:#f2f2f2"></polygon><polygon points="56,64 56,94 83,79" style="fill:#f6f6f6"></polygon><polygon points="83,48 83,78 56,63" style="fill:#f3f3f3"></polygon><polygon points="56,96 56,126 83,111" style="fill:#f6f6f6"></polygon><polygon points="83,80 83,110 56,95" style="fill:#f1f1f1"></polygon><polygon points="56,128 56,158 83,143" style="fill:#f8f8f8"></polygon><polygon points="83,112 83,142 56,127" style="fill:#fbfbfb"></polygon><polygon points="56,160 56,190 83,175" style="fill:#f2f2f2"></polygon><polygon points="83,144 83,174 56,159" style="fill:#f3f3f3"></polygon><polygon points="56,192 56,222 83,207" style="fill:#fbfbfb"></polygon><polygon points="83,176 83,206 56,191" style="fill:#f8f8f8"></polygon><polygon points="56,224 56,254 83,239" style="fill:#f6f6f6"></polygon><polygon points="83,208 83,238 56,223" style="fill:#fbfbfb"></polygon><polygon points="84,-16 84,14 111,-1" style="fill:#f1f1f1"></polygon><polygon points="111,0 111,30 84,15" style="fill:#f7f7f7"></polygon><polygon points="84,16 84,46 111,31" style="fill:#f2f2f2"></polygon><polygon points="111,32 111,62 84,47" style="fill:#f0f0f0"></polygon><polygon points="84,48 84,78 111,63" style="fill:#fbfbfb"></polygon><polygon points="111,64 111,94 84,79" style="fill:#f7f7f7"></polygon><polygon points="84,80 84,110 111,95" style="fill:#f7f7f7"></polygon><polygon points="111,96 111,126 84,111" style="fill:#f8f8f8"></polygon><polygon points="84,112 84,142 111,127" style="fill:#f8f8f8"></polygon><polygon points="111,128 111,158 84,143" style="fill:#f4f4f4"></polygon><polygon points="84,144 84,174 111,159" style="fill:#f8f8f8"></polygon><polygon points="111,160 111,190 84,175" style="fill:#f2f2f2"></polygon><polygon points="84,176 84,206 111,191" style="fill:#f1f1f1"></polygon><polygon points="111,192 111,222 84,207" style="fill:#f7f7f7"></polygon><polygon points="84,208 84,238 111,223" style="fill:#f1f1f1"></polygon><polygon points="111,224 111,254 84,239" style="fill:#f7f7f7"></polygon><polygon points="112,0 112,30 139,15" style="fill:#f1f1f1"></polygon><polygon points="139,-16 139,14 112,-1" style="fill:#f2f2f2"></polygon><polygon points="112,32 112,62 139,47" style="fill:#f2f2f2"></polygon><polygon points="139,16 139,46 112,31" style="fill:#f7f7f7"></polygon><polygon points="112,64 112,94 139,79" style="fill:#f2f2f2"></polygon><polygon points="139,48 139,78 112,63" style="fill:#f3f3f3"></polygon><polygon points="112,96 112,126 139,111" style="fill:#f8f8f8"></polygon><polygon points="139,80 139,110 112,95" style="fill:#f8f8f8"></polygon><polygon points="112,128 112,158 139,143" style="fill:#f3f3f3"></polygon><polygon points="139,112 139,142 112,127" style="fill:#f6f6f6"></polygon><polygon points="112,160 112,190 139,175" style="fill:#f6f6f6"></polygon><polygon points="139,144 139,174 112,159" style="fill:#f2f2f2"></polygon><polygon points="112,192 112,222 139,207" style="fill:#f0f0f0"></polygon><polygon points="139,176 139,206 112,191" style="fill:#f6f6f6"></polygon><polygon points="112,224 112,254 139,239" style="fill:#f1f1f1"></polygon><polygon points="139,208 139,238 112,223" style="fill:#f2f2f2"></polygon><polygon points="140,-16 140,14 167,-1" style="fill:#fbfbfb"></polygon><polygon points="167,0 167,30 140,15" style="fill:#f7f7f7"></polygon><polygon points="140,16 140,46 167,31" style="fill:#f7f7f7"></polygon><polygon points="167,32 167,62 140,47" style="fill:#f5f5f5"></polygon><polygon points="140,48 140,78 167,63" style="fill:#f8f8f8"></polygon><polygon points="167,64 167,94 140,79" style="fill:#f2f2f2"></polygon><polygon points="140,80 140,110 167,95" style="fill:#f3f3f3"></polygon><polygon points="167,96 167,126 140,111" style="fill:#f4f4f4"></polygon><polygon points="140,112 140,142 167,127" style="fill:#f2f2f2"></polygon><polygon points="167,128 167,158 140,143" style="fill:#f4f4f4"></polygon><polygon points="140,144 140,174 167,159" style="fill:#f5f5f5"></polygon><polygon points="167,160 167,190 140,175" style="fill:#f6f6f6"></polygon><polygon points="140,176 140,206 167,191" style="fill:#f8f8f8"></polygon><polygon points="167,192 167,222 140,207" style="fill:#f0f0f0"></polygon><polygon points="140,208 140,238 167,223" style="fill:#fbfbfb"></polygon><polygon points="167,224 167,254 140,239" style="fill:#f7f7f7"></polygon><polygon points="168,0 168,30 195,15" style="fill:#f7f7f7"></polygon><polygon points="195,-16 195,14 168,-1" style="fill:#f4f4f4"></polygon><polygon points="168,32 168,62 195,47" style="fill:#f4f4f4"></polygon><polygon points="195,16 195,46 168,31" style="fill:#f7f7f7"></polygon><polygon points="168,64 168,94 195,79" style="fill:#f8f8f8"></polygon><polygon points="195,48 195,78 168,63" style="fill:#f7f7f7"></polygon><polygon points="168,96 168,126 195,111" style="fill:#f5f5f5"></polygon><polygon points="195,80 195,110 168,95" style="fill:#f8f8f8"></polygon><polygon points="168,128 168,158 195,143" style="fill:#fbfbfb"></polygon><polygon points="195,112 195,142 168,127" style="fill:#f1f1f1"></polygon><polygon points="168,160 168,190 195,175" style="fill:#f0f0f0"></polygon><polygon points="195,144 195,174 168,159" style="fill:#f3f3f3"></polygon><polygon points="168,192 168,222 195,207" style="fill:#f3f3f3"></polygon><polygon points="195,176 195,206 168,191" style="fill:#f1f1f1"></polygon><polygon points="168,224 168,254 195,239" style="fill:#f7f7f7"></polygon><polygon points="195,208 195,238 168,223" style="fill:#f4f4f4"></polygon><polygon points="196,-16 196,14 223,-1" style="fill:#f4f4f4"></polygon><polygon points="223,0 223,30 196,15" style="fill:#f1f1f1"></polygon><polygon points="196,16 196,46 223,31" style="fill:#f2f2f2"></polygon><polygon points="223,32 223,62 196,47" style="fill:#f3f3f3"></polygon><polygon points="196,48 196,78 223,63" style="fill:#fbfbfb"></polygon><polygon points="223,64 223,94 196,79" style="fill:#fbfbfb"></polygon><polygon points="196,80 196,110 223,95" style="fill:#f6f6f6"></polygon><polygon points="223,96 223,126 196,111" style="fill:#f4f4f4"></polygon><polygon points="196,112 196,142 223,127" style="fill:#f8f8f8"></polygon><polygon points="223,128 223,158 196,143" style="fill:#f1f1f1"></polygon><polygon points="196,144 196,174 223,159" style="fill:#f0f0f0"></polygon><polygon points="223,160 223,190 196,175" style="fill:#f7f7f7"></polygon><polygon points="196,176 196,206 223,191" style="fill:#f2f2f2"></polygon><polygon points="223,192 223,222 196,207" style="fill:#f0f0f0"></polygon><polygon points="196,208 196,238 223,223" style="fill:#f4f4f4"></polygon><polygon points="223,224 223,254 196,239" style="fill:#f1f1f1"></polygon></svg>
